<svg width="74" height="74" viewBox="0 0 74 74" fill="none" xmlns="http://www.w3.org/2000/svg">
<mask id="path-1-inside-1_184_31" fill="white">
<path d="M47.2119 39.1555C42.9383 42.9655 48.4769 46.0984 49.0171 46.2476C60.7838 49.6444 74 56.0365 74 62.5777V64.9646C74 73.6174 54.4107 74 36.5432 74C18.702 74 0 73.6174 0 64.9646V62.5777C0 56.2201 13.1503 49.7821 24.3636 46.2476C25.1674 45.9951 29.0413 44.159 26.8803 39.2129C21.3198 34.2668 17.1296 26.2682 17.1296 18.3843C17.1296 6.32318 26.2874 0 37 0C47.7126 0 56.9231 7.32923 56.9231 18.3843C56.9231 29.4393 51.4855 35.3455 47.2119 39.1555Z"/>
</mask>
<path d="M49.0171 46.2476L50.9586 39.5222L50.9195 39.5109L50.8804 39.5001L49.0171 46.2476ZM47.2119 39.1555L42.5537 33.9304L42.5537 33.9305L47.2119 39.1555ZM26.8803 39.2129L33.2948 36.4104L32.68 35.0032L31.5327 33.9826L26.8803 39.2129ZM24.3636 46.2476L22.2659 39.5693L22.2592 39.5714L24.3636 46.2476ZM50.8804 39.5001C51.4201 39.6491 51.7906 39.8278 51.8043 39.8341C51.9108 39.8835 51.9729 39.9174 51.9884 39.926C52.0221 39.9446 52.0006 39.9344 51.9516 39.8996C51.8012 39.7931 51.8491 39.7879 51.9948 39.9909C52.155 40.2139 52.7081 41.1022 52.588 42.4644C52.4619 43.8958 51.7152 44.5186 51.8701 44.3806L42.5537 33.9305C40.5718 35.6974 38.9148 38.1406 38.6421 41.2356C38.3754 44.2615 39.5456 46.6567 40.6238 48.1578C41.6875 49.6389 42.9542 50.683 43.8607 51.3249C44.3401 51.6644 44.8065 51.9532 45.2298 52.1865C45.4359 52.3001 46.2159 52.736 47.1538 52.995L50.8804 39.5001ZM63.9231 18.3843C63.9231 2.66736 50.7315 -7 37 -7V7C44.6937 7 49.9231 11.9911 49.9231 18.3843H63.9231ZM37 -7C30.3296 -7 23.6474 -5.03364 18.5105 -0.661308C13.2309 3.83242 10.1296 10.4209 10.1296 18.3843H24.1296C24.1296 14.2866 25.6072 11.6829 27.5847 9.99976C29.7048 8.19523 32.9578 7 37 7V-7ZM10.1296 18.3843C10.1296 28.5494 15.3992 38.3689 22.228 44.4432L31.5327 33.9826C27.2404 30.1647 24.1296 23.9869 24.1296 18.3843H10.1296ZM20.4658 42.0154C20.6325 42.3968 20.4951 42.2773 20.5355 41.7881C20.5782 41.269 20.7849 40.7724 21.0541 40.3987C21.287 40.0755 21.5109 39.9159 21.6099 39.8522C21.6819 39.8058 21.8568 39.6978 22.2659 39.5693L26.4613 52.9259C27.7651 52.5163 30.4494 51.3082 32.4134 48.582C34.8052 45.262 35.2604 40.9093 33.2948 36.4104L20.4658 42.0154ZM22.2592 39.5714C16.3306 41.4401 9.67312 44.1361 4.34492 47.3699C1.69644 48.9773 -0.920519 50.8946 -2.95563 53.1389C-4.93127 55.3177 -7 58.5263 -7 62.5777H7C7 63.4503 6.57505 63.47 7.41552 62.5431C8.1965 61.6819 9.56794 60.5767 11.6087 59.3381C15.659 56.8799 21.1833 54.5896 26.468 52.9238L22.2592 39.5714ZM-7 62.5777V64.9646H7V62.5777H-7ZM-7 64.9646C-7 70.2404 -3.91437 73.8638 -0.47229 75.9856C2.70513 77.9443 6.65362 78.9881 10.4048 79.6276C18.001 80.9225 27.752 81 36.5432 81V67C27.4933 67 18.9726 66.8862 12.7575 65.8267C9.60305 65.2889 7.76096 64.6146 6.87422 64.068C6.25212 63.6845 7 64.0153 7 64.9646H-7ZM36.5432 81C45.358 81 55.3137 80.9211 63.1121 79.6336C66.9596 78.9984 70.9881 77.9675 74.2264 76.0502C77.6868 74.0013 81 70.3934 81 64.9646H67C67 63.8623 67.8646 63.547 67.0936 64.0034C66.1005 64.5914 64.115 65.2785 60.8317 65.8206C54.3686 66.8876 45.5959 67 36.5432 67V81ZM81 64.9646V62.5777H67V64.9646H81ZM81 62.5777C81 58.5179 78.9651 55.2833 76.9412 53.0471C74.8741 50.763 72.2102 48.8297 69.4997 47.2174C64.0497 43.9755 57.201 41.3243 50.9586 39.5222L47.0756 52.9729C52.6 54.5677 58.2427 56.8109 62.3425 59.2496C64.4069 60.4776 65.7824 61.581 66.5611 62.4413C67.3829 63.3494 67 63.3668 67 62.5777H81ZM49.9231 18.3843C49.9231 26.5754 46.1394 30.7338 42.5537 33.9304L51.8701 44.3806C56.8316 39.9573 63.9231 32.3033 63.9231 18.3843H49.9231Z" fill="white" mask="url(#path-1-inside-1_184_31)"/>
</svg>
