<svg width="72" height="72" viewBox="0 0 72 72" fill="none" xmlns="http://www.w3.org/2000/svg">
<path d="M36 0C16.1484 0 0 16.1484 0 36C0 55.8516 16.1484 72 36 72H72L59.3438 63.2812C67.0547 56.6719 72 46.9219 72 36C72 16.1484 55.8516 0 36 0ZM36 6C52.6055 6 66 19.3945 66 36C66 52.6055 52.6055 66 36 66C19.3945 66 6 52.6055 6 36C6 19.3945 19.3945 6 36 6ZM24 21C20.6836 21 18 23.6836 18 27C18 30.3164 20.6836 33 24 33C27.3164 33 30 30.3164 30 27C30 23.6836 27.3164 21 24 21ZM48 21C44.6836 21 42 23.6836 42 27C42 30.3164 44.6836 33 48 33C51.3164 33 54 30.3164 54 27C54 23.6836 51.3164 21 48 21ZM18.2812 39C19.7109 47.5078 27.082 54 36 54C44.918 54 52.2891 47.5078 53.7188 39H18.2812Z" fill="white"/>
</svg>
