<svg width="72" height="72" viewBox="0 0 72 72" fill="none" xmlns="http://www.w3.org/2000/svg">
<path d="M12 0C5.42012 0 0 5.42012 0 12V60C0 66.5799 5.42012 72 12 72H60C66.5799 72 72 66.5799 72 60V12C72 5.42012 66.5799 0 60 0H12ZM12 8H60C62.2601 8 64 9.73988 64 12V60C64 62.2601 62.2601 64 60 64H12C9.73988 64 8 62.2601 8 60V12C8 9.73988 9.73988 8 12 8ZM36 20C34.6739 20 33.4021 20.5268 32.4645 21.4645C31.5268 22.4021 31 23.6739 31 25C31 26.3261 31.5268 27.5979 32.4645 28.5355C33.4021 29.4732 34.6739 30 36 30C37.3261 30 38.5979 29.4732 39.5355 28.5355C40.4732 27.5979 41 26.3261 41 25C41 23.6739 40.4732 22.4021 39.5355 21.4645C38.5979 20.5268 37.3261 20 36 20ZM36 32C34.256 32 30 32.2336 30 36.6016C30 40.9696 31.2606 47.495 31.9766 49.375C32.6926 51.255 34.676 52 36 52C37.324 52 39.3034 51.2628 40.0234 49.3828C40.7434 47.5028 42 40.9774 42 36.6094C42 32.2374 37.744 32 36 32Z" fill="white"/>
</svg>
