<svg width="86" height="74" viewBox="0 0 86 74" fill="none" xmlns="http://www.w3.org/2000/svg">
<path d="M85.9826 21.5062C85.6012 15.6579 83.1697 10.1838 79.1799 6.19119C75.1902 2.19862 69.94 -0.0143104 64.4915 6.96454e-05H21.5093C15.9979 -0.00795332 10.6944 2.26266 6.69463 6.34266C2.6949 10.4226 0.304765 16.0002 0.0181792 21.9225C-0.00605974 22.3229 -0.00605974 22.7246 0.0181792 23.125V57.8123C0.00677394 59.9415 0.388106 62.052 1.14009 64.0215C1.89207 65.991 2.99975 67.7803 4.39897 69.2859C5.79819 70.7915 7.46114 71.9834 9.29149 72.7925C11.1218 73.6017 13.0832 74.012 15.062 73.9997C21.2084 73.9997 25.0338 69.0973 28.7733 64.3335C30.1487 62.6223 31.5671 60.8185 33.0715 59.246C35.0673 57.673 37.3092 56.4981 39.6908 55.7773C41.8896 55.4998 44.1111 55.4998 46.31 55.7773C48.6916 56.4981 50.9335 57.673 52.9293 59.246C54.4337 60.8185 55.8521 62.6223 57.2275 64.3335C60.967 68.9585 64.7924 73.9997 70.9388 73.9997C72.9176 74.012 74.879 73.6017 76.7093 72.7925C78.5396 71.9834 80.2026 70.7915 81.6018 69.2859C83.001 67.7803 84.1087 65.991 84.8607 64.0215C85.6127 62.052 85.994 59.9415 85.9826 57.8123V23.125C86.0058 22.7245 86.0058 22.3229 85.9826 21.9225V21.5062ZM77.3862 57.8123C77.3862 59.6522 76.7069 61.4168 75.4978 62.7178C74.2887 64.0189 72.6488 64.7498 70.9388 64.7498C68.7897 64.7498 66.6406 61.7898 63.8038 58.3673C62.3424 56.5636 60.7091 54.4361 58.8608 52.5398C55.7486 49.8419 52.1473 47.8728 48.2872 46.7586C44.7909 46.0801 41.2099 46.0801 37.7136 46.7586C33.8535 47.8728 30.2522 49.8419 27.14 52.5398C25.2917 54.4361 23.6584 56.5636 22.197 58.3673C19.5321 61.7898 17.2111 64.7498 15.062 64.7498C13.352 64.7498 11.7121 64.0189 10.503 62.7178C9.29389 61.4168 8.61462 59.6522 8.61462 57.8123V23.125C8.63561 22.8943 8.63561 22.6619 8.61462 22.4312C8.78017 18.8729 10.2115 15.5195 12.612 13.0656C15.0125 10.6118 18.1982 9.24557 21.5093 9.25003H64.4915C67.7127 9.2349 70.8226 10.5176 73.209 12.8458C75.5954 15.174 77.0855 18.379 77.3862 21.83V22.385C77.3648 22.6311 77.3648 22.8788 77.3862 23.125V57.8123Z" fill="white"/>
<path d="M60 38C62.2091 38 64 36.2091 64 34C64 31.7909 62.2091 30 60 30C57.7909 30 56 31.7909 56 34C56 36.2091 57.7909 38 60 38Z" fill="white"/>
<path d="M68 30C70.2091 30 72 28.2091 72 26C72 23.7909 70.2091 22 68 22C65.7909 22 64 23.7909 64 26C64 28.2091 65.7909 30 68 30Z" fill="white"/>
<path d="M60 22C62.2091 22 64 20.2091 64 18C64 15.7909 62.2091 14 60 14C57.7909 14 56 15.7909 56 18C56 20.2091 57.7909 22 60 22Z" fill="white"/>
<path d="M52 30C54.2091 30 56 28.2091 56 26C56 23.7909 54.2091 22 52 22C49.7909 22 48 23.7909 48 26C48 28.2091 49.7909 30 52 30Z" fill="white"/>
<path d="M22 34C26.4183 34 30 30.4183 30 26C30 21.5817 26.4183 18 22 18C17.5817 18 14 21.5817 14 26C14 30.4183 17.5817 34 22 34Z" fill="white"/>
</svg>
