<svg width="129" height="112" viewBox="0 0 129 112" fill="none" xmlns="http://www.w3.org/2000/svg">
<g clip-path="url(#clip0_2_61)">
<path d="M0.94455 23C0.94455 18.75 3.36937 16.4583 8.219 16.125L26.9068 16.25C28.161 16.25 28.9972 16.875 29.4153 18.125C31.3384 24.375 33.4915 29.7708 35.8745 34.3125C38.2575 38.8542 41.3721 44.0833 45.2184 50C45.5528 50.75 46.0963 51.125 46.8489 51.125C47.4342 51.125 47.894 50.8333 48.2285 50.25L48.6048 48.875L48.7302 27.25C48.7302 25.75 48.3748 24.75 47.6641 24.25C46.9534 23.75 45.6364 23.375 43.7133 23.125C42.2083 22.875 41.4557 21.9583 41.4557 20.375C41.4557 20.0417 41.4975 19.7917 41.5811 19.625C43.3371 14.2083 48.3539 11.5 56.6317 11.5L63.6553 11.375C66.8327 11.375 69.4666 12.1667 71.5569 13.75C73.6473 15.3333 74.6925 17.8333 74.6925 21.25V49.625C75.2777 50.0417 75.8212 50.25 76.3229 50.25C77.5771 50.25 78.6641 49.5 79.5839 48C88.7815 35.1667 93.7565 26.5833 94.5091 22.25C94.5091 22.1667 94.5927 21.9583 94.7599 21.625C95.3452 20.375 96.3068 19.2917 97.6446 18.375C98.9824 17.4583 100.153 16.8333 101.156 16.5C101.491 16.3333 101.867 16.25 102.285 16.25H121.726L122.98 16.375C124.652 16.375 125.948 17.1667 126.868 18.75C127.202 19.25 127.432 19.7917 127.558 20.375C127.683 20.9583 127.767 21.5417 127.808 22.125C127.85 22.7083 127.871 23.0417 127.871 23.125V24C127.286 27.4167 125.802 31.0625 123.419 34.9375C121.036 38.8125 118.005 43 114.326 47.5C110.647 52 108.347 54.9583 107.427 56.375C106.675 57.375 106.299 58.2917 106.299 59.125C106.299 59.7917 106.633 60.5417 107.302 61.375L125.614 84.375C126.617 85.7083 127.119 87.1667 127.119 88.75C127.119 90.6667 126.366 92.25 124.861 93.5C123.356 94.75 121.558 95.4583 119.468 95.625L117.336 95.75H98.2717C98.1881 95.75 98.0209 95.7708 97.77 95.8125C97.5192 95.8542 97.352 95.875 97.2683 95.875C95.4288 95.875 93.7147 95.0833 92.1261 93.5C91.5407 92.8333 87.6109 87.9167 80.3364 78.75C79.9184 78.1667 79.333 77.625 78.5805 77.125C78.2461 78.4583 77.8071 80.375 77.2636 82.875C76.7201 85.375 76.3229 87.1667 76.0721 88.25L75.6958 90.375C74.8597 93.2917 73.1038 95.0417 70.4281 95.625L68.6722 95.75H56.3809C49.4409 95.75 42.5218 92.5833 35.6236 86.25C28.7254 79.9167 22.5171 71.7292 16.9985 61.6875C11.48 51.6458 6.33768 39.9583 1.57166 26.625C1.15359 25.5417 0.94455 24.3333 0.94455 23ZM76.3229 55.375C74.567 55.375 72.9784 54.8958 71.5569 53.9375C70.1355 52.9792 69.4247 51.6667 69.4247 50V21.25C69.4247 19.5833 69.0067 18.3958 68.1705 17.6875C67.3344 16.9792 65.8711 16.625 63.7808 16.625L56.6317 16.875C53.0363 16.875 50.3189 17.5 48.4793 18.75C52.1584 20.5 53.9979 23.3333 53.9979 27.25V49.25C53.8307 51.3333 52.9945 53.0625 51.4895 54.4375C49.9844 55.8125 48.3121 56.5 46.4726 56.5C43.9642 56.5 42.041 55.2917 40.7032 52.875C34.1813 43.0417 29.3316 33.7083 26.1543 24.875L25.0255 21.625L8.34442 21.5C7.25744 21.5 6.65123 21.5625 6.52581 21.6875C6.40039 21.8125 6.33768 22.1667 6.33768 22.75C6.33768 23.5 6.42129 24.2917 6.58852 25.125L9.22237 32.125C16.246 50.2083 23.8758 64.4583 32.1118 74.875C40.3478 85.2917 48.4375 90.5 56.3809 90.5H68.9231C69.4247 90.5 69.801 90.3542 70.0518 90.0625C70.3027 89.7708 70.5117 89.2083 70.679 88.375L70.9298 87.125L73.3128 76.125C73.9817 74.625 74.567 73.625 75.0687 73.125C75.9885 72.2083 77.0755 71.75 78.3297 71.75C80.3364 71.75 82.385 72.9583 84.4753 75.375L95.1362 88.875C95.8051 89.9583 96.5158 90.5 97.2683 90.5H117.963C120.471 90.5 121.726 89.875 121.726 88.625C121.726 88.2083 121.6 87.7917 121.349 87.375L103.163 64.75C101.742 63 101.031 61.125 101.031 59.125C101.031 57.125 101.7 55.2083 103.038 53.375C104.125 51.7083 106.236 48.9375 109.372 45.0625C112.507 41.1875 115.245 37.5625 117.587 34.1875C119.928 30.8125 121.475 27.75 122.227 25L122.604 23.375C122.52 23.2083 122.478 22.9375 122.478 22.5625C122.478 22.1875 122.436 21.875 122.353 21.625H102.661C101.407 22.125 100.404 22.875 99.6513 23.875L98.8988 26.25C96.8085 32 91.3317 40.875 82.4686 52.875C80.7127 54.5417 78.6641 55.375 76.3229 55.375Z" fill="white"/>
</g>
<defs>
<clipPath id="clip0_2_61">
<rect width="128.432" height="112" fill="white" transform="translate(0.568298)"/>
</clipPath>
</defs>
</svg>
