<svg width="129" height="128" viewBox="0 0 129 128" fill="none" xmlns="http://www.w3.org/2000/svg">
<path d="M64.2159 42C59.85 42 55.5822 43.2903 51.9521 45.7077C48.322 48.1251 45.4927 51.561 43.822 55.581C42.1512 59.6009 41.7141 64.0244 42.5658 68.292C43.4175 72.5596 45.5199 76.4796 48.607 79.5564C51.6942 82.6331 55.6274 84.7284 59.9094 85.5773C64.1914 86.4262 68.6297 85.9905 72.6633 84.3253C76.6968 82.6602 80.1443 79.8404 82.5699 76.2225C84.9954 72.6047 86.29 68.3512 86.29 64C86.2834 58.1673 83.9556 52.5753 79.8173 48.451C75.6791 44.3266 70.0683 42.0066 64.2159 42ZM64.2159 82C60.6438 82 57.1519 80.9443 54.1819 78.9665C51.2118 76.9886 48.8969 74.1774 47.5299 70.8883C46.163 67.5992 45.8053 63.98 46.5022 60.4884C47.199 56.9967 48.9192 53.7894 51.445 51.2721C53.9708 48.7547 57.1889 47.0404 60.6924 46.3459C64.1958 45.6513 67.8272 46.0078 71.1274 47.3702C74.4275 48.7325 77.2482 51.0397 79.2328 53.9997C81.2173 56.9598 82.2766 60.4399 82.2766 64C82.2712 68.7723 80.3667 73.3476 76.9808 76.7221C73.5949 80.0966 69.0042 81.9947 64.2159 82ZM86.29 16H42.1417C35.2252 16.0078 28.5942 18.7496 23.7035 23.6238C18.8128 28.4981 16.0618 35.1068 16.054 42V86C16.0618 92.8932 18.8128 99.5019 23.7035 104.376C28.5942 109.25 35.2252 111.992 42.1417 112H86.29C93.2065 111.992 99.8375 109.25 104.728 104.376C109.619 99.5019 112.37 92.8932 112.378 86V42C112.37 35.1068 109.619 28.4981 104.728 23.6238C99.8375 18.7496 93.2065 16.0078 86.29 16ZM108.364 86C108.358 91.8327 106.03 97.4247 101.892 101.549C97.7533 105.673 92.1425 107.993 86.29 108H42.1417C36.2892 107.993 30.6784 105.673 26.5402 101.549C22.4019 97.4247 20.0741 91.8327 20.0675 86V42C20.0741 36.1673 22.4019 30.5753 26.5402 26.451C30.6784 22.3266 36.2892 20.0066 42.1417 20H86.29C92.1425 20.0066 97.7533 22.3266 101.892 26.451C106.03 30.5753 108.358 36.1673 108.364 42V86ZM94.317 38C94.317 38.7911 94.0816 39.5645 93.6406 40.2223C93.1996 40.8801 92.5728 41.3928 91.8394 41.6955C91.1061 41.9983 90.2991 42.0775 89.5205 41.9231C88.742 41.7688 88.0269 41.3878 87.4656 40.8284C86.9043 40.269 86.522 39.5563 86.3672 38.7804C86.2123 38.0044 86.2918 37.2002 86.5956 36.4693C86.8993 35.7384 87.4137 35.1136 88.0738 34.6741C88.7338 34.2346 89.5098 34 90.3035 34C91.3676 34.0013 92.3876 34.4232 93.14 35.173C93.8924 35.9229 94.3157 36.9395 94.317 38Z" fill="white" stroke="white" stroke-width="2"/>
</svg>
