<svg width="129" height="128" viewBox="0 0 129 128" fill="none" xmlns="http://www.w3.org/2000/svg">
<path d="M117.958 14.7386C116.804 13.7854 115.413 13.1612 113.931 12.9321C112.45 12.703 110.935 12.8775 109.545 13.4373L13.6657 52.0133C12.1164 52.6478 10.7973 53.737 9.88359 55.1363C8.96992 56.5355 8.50485 58.1786 8.55014 59.8475C8.59543 61.5163 9.14892 63.132 10.1372 64.4799C11.1254 65.8279 12.5016 66.8445 14.0831 67.3946L34.7713 74.552L45.9823 111.491C46.0037 111.565 46.0733 111.613 46.1054 111.683C46.2209 111.977 46.3896 112.248 46.6031 112.483C46.9275 112.844 47.3462 113.108 47.8125 113.245C47.866 113.267 47.9035 113.315 47.957 113.325H47.9891L48.0051 113.331C48.4191 113.419 48.8493 113.397 49.252 113.267C49.2948 113.256 49.3376 113.256 49.3858 113.24C49.7724 113.105 50.1223 112.882 50.4079 112.589C50.44 112.552 50.4935 112.547 50.5256 112.515L66.6492 94.776L90.1789 112.936C91.6077 114.051 93.3683 114.653 95.1824 114.653C99.1103 114.653 102.498 111.912 103.306 108.088L120.762 22.6586C121.058 21.2084 120.953 19.7052 120.46 18.3094C119.966 16.9137 119.101 15.6777 117.958 14.7333V14.7386ZM51.8313 81.5653L48.048 99.896L40.1548 73.88L79.2997 53.56L52.5591 80.216C52.1888 80.5847 51.9357 81.054 51.8313 81.5653ZM98.0614 107.016C97.9609 107.5 97.7374 107.949 97.4122 108.322C97.087 108.695 96.6711 108.978 96.2045 109.144C95.7492 109.319 95.2562 109.372 94.7739 109.299C94.2916 109.226 93.8367 109.029 93.4539 108.728L67.9656 89.0533C67.4328 88.6434 66.7645 88.4486 66.094 88.5079C65.4235 88.5673 64.8001 88.8763 64.3481 89.3733L53.1264 101.699L56.9044 83.4213L95.375 45.0746C95.8256 44.6241 96.0997 44.028 96.1479 43.3938C96.1962 42.7595 96.0154 42.129 95.6382 41.616C95.261 41.1029 94.7122 40.7411 94.0909 40.5959C93.4696 40.4507 92.8166 40.5316 92.2499 40.824L36.7941 69.6133L15.833 62.3493C15.2772 62.1664 14.7925 61.8153 14.4463 61.345C14.1 60.8747 13.9095 60.3086 13.9012 59.7253C13.8745 59.1369 14.0323 58.5548 14.3525 58.0597C14.6728 57.5647 15.1397 57.1813 15.6885 56.9626L111.552 18.3866C112.043 18.1786 112.583 18.1113 113.111 18.1924C113.638 18.2734 114.133 18.4995 114.538 18.8453C114.941 19.1706 115.246 19.6012 115.418 20.089C115.59 20.5769 115.623 21.1027 115.512 21.608L98.0614 107.021V107.016Z" fill="white"/>
</svg>
