<svg width="129" height="128" viewBox="0 0 129 128" fill="none" xmlns="http://www.w3.org/2000/svg">
<path d="M64.2613 13C55.4781 13.0023 46.8494 15.3021 39.2375 19.6695C31.6257 24.0369 25.2973 30.3189 20.8848 37.8877C16.4724 45.4565 14.1305 54.047 14.0932 62.8006C14.0559 71.5541 16.3245 80.1641 20.6722 87.77L16.1546 103.528C15.8597 104.557 15.8463 105.645 16.1156 106.681C16.385 107.717 16.9273 108.662 17.6865 109.419C18.4456 110.175 19.394 110.716 20.4332 110.984C21.4725 111.252 22.5648 111.239 23.5971 110.945L39.4087 106.443C46.0842 110.236 53.5446 112.45 61.2146 112.915C68.8846 113.38 76.5592 112.082 83.6465 109.123C90.7337 106.163 97.0442 101.621 102.091 95.8461C107.138 90.0712 110.787 83.2182 112.756 75.8155C114.724 68.4128 114.961 60.6583 113.447 53.1502C111.933 45.642 108.708 38.5808 104.022 32.5112C99.3366 26.4415 93.3145 21.5257 86.4206 18.1428C79.5268 14.76 71.9454 13.0004 64.2613 13ZM64.2613 109C55.9719 109.006 47.8344 106.783 40.7061 102.566C40.4711 102.427 40.2099 102.337 39.9386 102.302C39.6673 102.267 39.3917 102.287 39.1288 102.363L22.4944 107.099C22.1503 107.197 21.7862 107.201 21.4399 107.112C21.0935 107.022 20.7775 106.842 20.5245 106.59C20.2715 106.338 20.0908 106.023 20.001 105.677C19.9113 105.332 19.9158 104.969 20.014 104.627L24.766 88.0485C24.8411 87.7864 24.8617 87.5118 24.8265 87.2414C24.7914 86.9711 24.7011 86.7108 24.5613 86.4765C19.3627 77.7475 17.2068 67.5501 18.4294 57.4727C19.652 47.3952 24.1845 38.0038 31.3207 30.7612C38.4569 23.5186 47.7962 18.8317 57.8838 17.4304C67.9713 16.0292 78.2406 17.9924 87.092 23.0141C95.9433 28.0359 102.88 35.8343 106.821 45.1944C110.761 54.5546 111.486 64.9509 108.88 74.764C106.274 84.577 100.486 93.2557 92.4153 99.4481C84.345 105.64 74.4463 108.999 64.2613 109ZM89.6024 72.2715L79.3379 66.426C78.4093 65.8978 77.3564 65.6253 76.2872 65.6367C75.218 65.648 74.1711 65.9427 73.254 66.4905L66.3272 70.6325C62.1341 68.5151 58.7279 65.1201 56.6035 60.941L60.7595 54.0375C61.309 53.1234 61.6046 52.08 61.6159 51.0144C61.6272 49.9488 61.3538 48.8995 60.8237 47.974L54.959 37.744C54.48 36.9112 53.7892 36.2189 52.9561 35.7372C52.123 35.2554 51.1772 35.0011 50.214 35C45.967 35.001 41.8933 36.6788 38.8846 39.6662C35.8758 42.6536 34.1771 46.7073 34.1601 50.94C34.1522 56.4605 35.2364 61.9284 37.3507 67.0309C39.465 72.1335 42.5678 76.7706 46.4817 80.677C50.3957 84.5834 55.0439 87.6824 60.1606 89.7969C65.2773 91.9114 70.7621 92.9999 76.3012 93H76.3614C80.6085 92.9832 84.676 91.2902 87.6735 88.2916C90.6711 85.2929 92.3547 81.2328 92.3557 77C92.3546 76.0401 92.0995 75.0975 91.6161 74.2673C91.1327 73.4371 90.4381 72.7487 89.6024 72.2715ZM76.3559 89H76.3017C71.2901 89 66.3277 88.0153 61.6983 86.1023C57.0689 84.1893 52.8633 81.3854 49.322 77.8512C45.7808 74.3169 42.9734 70.1214 41.0605 65.5049C39.1475 60.8883 38.1665 55.9412 38.1736 50.9465C38.1874 47.7731 39.462 44.7343 41.7186 42.4953C43.9752 40.2564 47.0299 38.9996 50.214 39C50.4698 39.0003 50.721 39.0678 50.9422 39.1957C51.1635 39.3236 51.347 39.5074 51.4743 39.7285L57.339 49.959C57.5157 50.2674 57.6068 50.6172 57.6031 50.9723C57.5994 51.3275 57.501 51.6753 57.3179 51.98L52.6071 59.804C52.4405 60.0806 52.3435 60.3933 52.3245 60.7154C52.3055 61.0374 52.3649 61.3593 52.4977 61.6535C55.117 67.4632 59.7834 72.1138 65.6128 74.724C65.908 74.8565 66.2309 74.9157 66.5541 74.8968C66.8773 74.8778 67.191 74.7811 67.4685 74.615L75.3184 69.92C75.6242 69.7375 75.9732 69.6393 76.3297 69.6355C76.6861 69.6317 77.0371 69.7225 77.3467 69.8985L87.6112 75.7445C87.8331 75.8712 88.0176 76.054 88.1459 76.2744C88.2742 76.4949 88.342 76.7451 88.3422 77C88.3426 80.1734 87.0816 83.2177 84.8352 85.4667C82.5888 87.7157 79.54 88.9861 76.3559 89Z" fill="white" stroke="white" stroke-width="2"/>
</svg>
